<svg width="42" height="42" viewBox="0 0 42 42" fill="none" xmlns="http://www.w3.org/2000/svg">
<path d="M15.4976 0.800781C14.8305 0.800802 14.1765 0.986178 13.6087 1.33623C13.0408 1.68627 12.5813 2.18722 12.2816 2.78318L10.8656 5.60078H6.8096C5.2183 5.60078 3.69218 6.23292 2.56696 7.35814C1.44174 8.48336 0.809601 10.0095 0.809601 11.6008V30.8008C0.809601 32.3921 1.44174 33.9182 2.56696 35.0434C3.69218 36.1686 5.2183 36.8008 6.8096 36.8008H19.04C18.6475 36.0337 18.3316 35.2298 18.0968 34.4008H6.812C5.85722 34.4008 4.94155 34.0215 4.26642 33.3464C3.59129 32.6712 3.212 31.7556 3.212 30.8008V11.6008C3.212 10.646 3.59129 9.73033 4.26642 9.0552C4.94155 8.38007 5.85722 8.00078 6.812 8.00078H11.6072C11.8295 8.00033 12.0472 7.93816 12.2362 7.8212C12.4252 7.70424 12.578 7.53709 12.6776 7.33838L14.4248 3.86078C14.5249 3.66216 14.6782 3.49526 14.8676 3.37871C15.0571 3.26217 15.2752 3.20057 15.4976 3.20078H24.5312C24.7543 3.20034 24.9731 3.26209 25.163 3.3791C25.3529 3.49611 25.5065 3.66374 25.6064 3.86318L27.3416 7.33598C27.4414 7.53505 27.5945 7.70245 27.784 7.81943C27.9735 7.93641 28.1917 7.99837 28.4144 7.99838H33.212C34.1668 7.99838 35.0825 8.37767 35.7576 9.0528C36.4327 9.72793 36.812 10.6436 36.812 11.5984V19.0456C37.6673 19.4837 38.4721 20.014 39.212 20.6272V11.5984C39.212 10.0071 38.5799 8.48096 37.4546 7.35574C36.3294 6.23052 34.8033 5.59838 33.212 5.59838H29.156L27.752 2.79038C27.4529 2.19235 26.9931 1.68944 26.4242 1.33803C25.8554 0.986614 25.1999 0.800581 24.5312 0.800781H15.4976ZM20 10.4008C22.1431 10.4009 24.2245 11.1177 25.9132 12.4371C27.6019 13.7566 28.8008 15.603 29.3192 17.6824C28.5212 17.7717 27.7331 17.9339 26.9648 18.1672C26.6423 16.9419 26.0023 15.8234 25.1094 14.9245C24.2165 14.0256 23.1023 13.3782 21.8792 13.0476C20.6561 12.7169 19.3674 12.7148 18.1432 13.0413C16.919 13.3679 15.8026 14.0116 14.9067 14.9075C14.0108 15.8034 13.3671 16.9198 13.0406 18.144C12.714 19.3682 12.7161 20.6569 13.0468 21.8799C13.3774 23.103 14.0249 24.2173 14.9237 25.1102C15.8226 26.0031 16.9411 26.6431 18.1664 26.9656C17.9333 27.7331 17.771 28.5204 17.6816 29.3176C15.4139 28.7445 13.4332 27.3636 12.1112 25.434C10.7892 23.5044 10.2168 21.1588 10.5014 18.8371C10.7859 16.5155 11.9078 14.3775 13.6567 12.8242C15.4055 11.271 17.661 10.4093 20 10.4008ZM41.6 30.8008C41.6 33.6651 40.4621 36.4121 38.4368 38.4375C36.4114 40.4629 33.6643 41.6008 30.8 41.6008C27.9357 41.6008 25.1886 40.4629 23.1632 38.4375C21.1379 36.4121 20 33.6651 20 30.8008C20 27.9364 21.1379 25.1894 23.1632 23.164C25.1886 21.1386 27.9357 20.0008 30.8 20.0008C33.6643 20.0008 36.4114 21.1386 38.4368 23.164C40.4621 25.1894 41.6 27.9364 41.6 30.8008ZM32 26.0008C32 25.6825 31.8736 25.3773 31.6485 25.1523C31.4235 24.9272 31.1183 24.8008 30.8 24.8008C30.4817 24.8008 30.1765 24.9272 29.9515 25.1523C29.7264 25.3773 29.6 25.6825 29.6 26.0008V29.6008H26C25.6817 29.6008 25.3765 29.7272 25.1515 29.9523C24.9264 30.1773 24.8 30.4825 24.8 30.8008C24.8 31.119 24.9264 31.4243 25.1515 31.6493C25.3765 31.8744 25.6817 32.0008 26 32.0008H29.6V35.6008C29.6 35.919 29.7264 36.2243 29.9515 36.4493C30.1765 36.6744 30.4817 36.8008 30.8 36.8008C31.1183 36.8008 31.4235 36.6744 31.6485 36.4493C31.8736 36.2243 32 35.919 32 35.6008V32.0008H35.6C35.9183 32.0008 36.2235 31.8744 36.4485 31.6493C36.6736 31.4243 36.8 31.119 36.8 30.8008C36.8 30.4825 36.6736 30.1773 36.4485 29.9523C36.2235 29.7272 35.9183 29.6008 35.6 29.6008H32V26.0008Z" fill="white"/>
</svg>
