<svg width="112" height="112" viewBox="0 0 112 112" fill="none" xmlns="http://www.w3.org/2000/svg">
<mask id="mask0_198_7095" style="mask-type:alpha" maskUnits="userSpaceOnUse" x="0" y="0" width="112" height="112">
<circle cx="56" cy="56" r="56" fill="#F6F6F6"/>
</mask>
<g mask="url(#mask0_198_7095)">
<circle cx="56" cy="56" r="56" fill="#E8E8E8"/>
<path d="M115.629 61.2775L87.9892 27.2568L24.2266 83.6008L63.9133 123.287L104.805 125.202L115.629 61.2775Z" fill="url(#paint0_linear_198_7095)"/>
</g>
<path fill-rule="evenodd" clip-rule="evenodd" d="M59.5914 91.6332V85.0999H85.7243C86.5907 85.0999 87.4216 84.7557 88.0342 84.1431C88.6468 83.5305 88.9909 82.6996 88.9909 81.8332V29.5665C88.9909 28.7001 88.6468 27.8692 88.0342 27.2566C87.4216 26.644 86.5907 26.2998 85.7243 26.2998H66.1247C64.2706 26.2976 62.4374 26.691 60.7474 27.4538C59.0575 28.2165 57.5497 29.331 56.3248 30.7229C55.0999 29.331 53.5922 28.2165 51.9022 27.4538C50.2123 26.691 48.3791 26.2976 46.525 26.2998H26.9253C26.0589 26.2998 25.2281 26.644 24.6155 27.2566C24.0029 27.8692 23.6587 28.7001 23.6587 29.5665V81.8332C23.6587 82.6996 24.0029 83.5305 24.6155 84.1431C25.2281 84.7557 26.0589 85.0999 26.9253 85.0999H53.0582V91.6332H59.5914Z" fill="#F8F8F8"/>
<mask id="mask1_198_7095" style="mask-type:alpha" maskUnits="userSpaceOnUse" x="35" y="35" width="42" height="42">
<rect x="35" y="35" width="42" height="42" fill="#D9D9D9"/>
</mask>
<g mask="url(#mask1_198_7095)">
<path d="M51.5231 64.2199L55.9989 59.7441L60.4747 64.2199L63.3451 61.3496L58.8693 56.8738L63.3451 52.398L60.4747 49.5276L55.9989 54.0034L51.5231 49.5276L48.6527 52.398L53.1285 56.8738L48.6527 61.3496L51.5231 64.2199ZM46.9768 72.5895C45.6846 72.5895 44.5886 72.1397 43.6889 71.2399C42.7892 70.3402 42.3393 69.2442 42.3393 67.952V45.7708H40.0205V41.1332H50.1801V38.8145H61.7682V41.1332H71.9773V45.7708H69.6585V67.952C69.6585 69.2442 69.2086 70.3402 68.3089 71.2399C67.4091 72.1397 66.3132 72.5895 65.0209 72.5895H46.9768Z" fill="#FF3D3D"/>
</g>
<defs>
<linearGradient id="paint0_linear_198_7095" x1="52.3588" y1="46.2831" x2="102.375" y2="101.148" gradientUnits="userSpaceOnUse">
<stop stop-color="#BDBDBD"/>
<stop offset="0.33125" stop-color="#D1D1D1"/>
<stop offset="1" stop-color="#EEEEEE" stop-opacity="0"/>
</linearGradient>
</defs>
</svg>
