<svg width="21" height="20" viewBox="0 0 21 20" fill="none" xmlns="http://www.w3.org/2000/svg">
<g id="logo_googleg_48dp">
<path id="Shape" fill-rule="evenodd" clip-rule="evenodd" d="M20.1 10.2271C20.1 9.518 20.0364 8.83619 19.9182 8.18164H10.5V12.0498H15.8818C15.65 13.2998 14.9455 14.3589 13.8864 15.068V17.5771H17.1182C19.0091 15.8362 20.1 13.2725 20.1 10.2271Z" fill="#4285F4"/>
<path id="Shape_2" fill-rule="evenodd" clip-rule="evenodd" d="M10.5 19.9999C13.2 19.9999 15.4636 19.1044 17.1181 17.5772L13.8863 15.0681C12.9909 15.6681 11.8454 16.0226 10.5 16.0226C7.89542 16.0226 5.69087 14.2635 4.90451 11.8999H1.5636V14.4908C3.20905 17.759 6.59087 19.9999 10.5 19.9999Z" fill="#34A853"/>
<path id="Shape_3" fill-rule="evenodd" clip-rule="evenodd" d="M4.90455 11.9001C4.70455 11.3001 4.59091 10.6592 4.59091 10.0001C4.59091 9.34097 4.70455 8.70006 4.90455 8.10006V5.50916H1.56364C0.886364 6.85916 0.5 8.38643 0.5 10.0001C0.5 11.6137 0.886364 13.141 1.56364 14.491L4.90455 11.9001Z" fill="#FBBC05"/>
<path id="Shape_4" fill-rule="evenodd" clip-rule="evenodd" d="M10.5 3.97727C11.9681 3.97727 13.2863 4.48182 14.3227 5.47273L17.1909 2.60455C15.4591 0.990909 13.1954 0 10.5 0C6.59087 0 3.20905 2.24091 1.5636 5.50909L4.90451 8.1C5.69087 5.73636 7.89542 3.97727 10.5 3.97727Z" fill="#EA4335"/>
</g>
</svg>
