<svg width="25" height="25" viewBox="0 0 25 25" fill="none" xmlns="http://www.w3.org/2000/svg">
<path d="M22.3626 10.4753H12.6849V14.453H18.2135C17.9751 15.7387 17.2519 16.8262 16.1617 17.5548C15.2403 18.1708 14.0644 18.5351 12.6822 18.5351C10.0063 18.5351 7.74296 16.7271 6.93403 14.2976C6.73046 13.6815 6.6126 13.0226 6.6126 12.3449C6.6126 11.6673 6.73046 11.0083 6.93403 10.3923C7.74563 7.96548 10.009 6.15744 12.6849 6.15744C14.193 6.15744 15.5456 6.67708 16.6117 7.69494L19.5581 4.74583C17.7769 3.08512 15.4546 2.06726 12.6849 2.06726C8.66974 2.06726 5.19563 4.37083 3.50546 7.72976C2.80903 9.11726 2.4126 10.6869 2.4126 12.3476C2.4126 14.0083 2.80903 15.5753 3.50546 16.9628C5.19563 20.3217 8.66974 22.6253 12.6849 22.6253C15.4599 22.6253 17.7849 21.7039 19.4831 20.1342C21.4251 18.3449 22.5474 15.7092 22.5474 12.578C22.5474 11.8494 22.4831 11.1503 22.3626 10.4753Z" fill="black"/>
</svg>
