<svg width="20" height="16" viewBox="0 0 20 16" fill="none" xmlns="http://www.w3.org/2000/svg">
<path d="M3.5998 0.799805C2.72459 0.799805 1.88522 1.14748 1.26635 1.76635C0.647482 2.38522 0.299805 3.22459 0.299805 4.0998V5.5998H19.4998V4.0998C19.4998 3.22459 19.1521 2.38522 18.5333 1.76635C17.9144 1.14748 17.075 0.799805 16.1998 0.799805H3.5998ZM19.4998 6.7998H0.299805V11.8998C0.299805 12.775 0.647482 13.6144 1.26635 14.2333C1.88522 14.8521 2.72459 15.1998 3.5998 15.1998H16.1998C17.075 15.1998 17.9144 14.8521 18.5333 14.2333C19.1521 13.6144 19.4998 12.775 19.4998 11.8998V6.7998ZM14.0998 11.5998H16.4998C16.6589 11.5998 16.8115 11.663 16.9241 11.7755C17.0366 11.8881 17.0998 12.0407 17.0998 12.1998C17.0998 12.3589 17.0366 12.5115 16.9241 12.6241C16.8115 12.7366 16.6589 12.7998 16.4998 12.7998H14.0998C13.9407 12.7998 13.7881 12.7366 13.6755 12.6241C13.563 12.5115 13.4998 12.3589 13.4998 12.1998C13.4998 12.0407 13.563 11.8881 13.6755 11.7755C13.7881 11.663 13.9407 11.5998 14.0998 11.5998Z" fill="black"/>
</svg>
