<svg width="26" height="28" viewBox="0 0 26 28" fill="none" xmlns="http://www.w3.org/2000/svg">
<path d="M4.89968 0.666995H7.68902L4.89168 8.66699H0.0756836L3.70768 1.40299C3.81852 1.1818 3.98872 0.995812 4.19923 0.865831C4.40975 0.735849 4.65227 0.667003 4.89968 0.666995ZM0.171684 11.3337L8.20902 23.8323L4.81968 11.3337H0.171684ZM7.58235 11.3337L11.6623 26.387C11.7347 26.66 11.8952 26.9014 12.119 27.0736C12.3428 27.2459 12.6173 27.3393 12.8997 27.3393C13.1821 27.3393 13.4566 27.2459 13.6804 27.0736C13.9042 26.9014 14.0647 26.66 14.137 26.387L18.2277 11.3337H7.58235ZM20.9904 11.3337L17.593 23.827L25.6277 11.3337H20.9904ZM25.7237 8.66699H20.9157L18.1157 0.666995H20.8997C21.1475 0.666508 21.3906 0.73512 21.6017 0.865129C21.8127 0.995138 21.9833 1.1814 22.0944 1.40299L25.7237 8.66699ZM18.0917 8.66699H7.71835L10.513 0.666995H15.2864L18.0917 8.66699Z" fill="#77B5FE"/>
</svg>
